# xmcd
#
# Track frame offsets: 
#        150
#        17693
#        36449
#        55636
#        86216
#        104248
#        126311
#        156264
#        178768
#        210716
#        233068
#        251506
#        271081
#        305648
#
# Disc length: 4267 seconds
#
# Revision: 6
# Processed by: cddbd v1.5.2PL0 Copyright (c) Steve Scherf et al.
# Submitted via: ExactAudioCopy v0.99pb5
#
DISCID=c710a90e
DTITLE=Gary Moore - The Essential
DYEAR=2008
DGENRE=Ballad
TTITLE0=Always Gonna Love You
TTITLE1=Still Got The Blues (For You)
TTITLE2=Empty Rooms
TTITLE3=Parisienne Walkways (Live)
TTITLE4=One Day
TTITLE5=Separate Ways
TTITLE6=Story Of The Blues
TTITLE7=Crying In The Shadows
TTITLE8=With Love (Remember)
TTITLE9=Midnight Blues
TTITLE10=Falling In Love With You
TTITLE11=Jumpin' At Shadows
TTITLE12=Blues For Narada
TTITLE13=Johnny Boy
EXTD=Virgin Records
EXTT0=
EXTT1=
EXTT2=
EXTT3=
EXTT4=
EXTT5=
EXTT6=
EXTT7=
EXTT8=
EXTT9=
EXTT10=
EXTT11=
EXTT12=
EXTT13=
PLAYORDER=
